<svg width="20" height="18" viewBox="0 0 20 18" fill="none" xmlns="http://www.w3.org/2000/svg">
<path d="M2.33526 2.71092L1.9817 2.35737L2.33526 2.71092ZM2.33526 9.41741L2.68881 9.06386H2.68881L2.33526 9.41741ZM9.2308 16.313L9.58573 15.9608L9.58435 15.9594L9.2308 16.313ZM10.7449 16.3369L11.0985 16.6904C11.1094 16.6795 11.1198 16.6681 11.1296 16.6562L10.7449 16.3369ZM10.745 16.3368L10.3914 15.9833C10.3805 15.9942 10.3701 16.0056 10.3603 16.0174L10.745 16.3368ZM17.6643 9.41747L17.3108 9.06391L17.6643 9.41747ZM17.6643 2.71097L18.0179 2.35742L18.0179 2.35742L17.6643 2.71097ZM14.3111 1.32201V0.822015V1.32201ZM10.9578 2.71097L11.3114 3.06453V3.06453L10.9578 2.71097ZM9.99983 3.669L9.64627 4.02255C9.84154 4.21781 10.1581 4.21781 10.3534 4.02255L9.99983 3.669ZM9.04175 2.71092L8.6882 3.06447L9.04175 2.71092ZM5.6885 1.32196L5.6885 1.82196H5.6885V1.32196ZM1.4463 6.06417C1.4463 4.93906 1.89324 3.86004 2.68881 3.06447L1.9817 2.35737C0.998598 3.34047 0.446296 4.67385 0.446296 6.06417H1.4463ZM2.68881 9.06386C1.89324 8.26829 1.4463 7.18927 1.4463 6.06417H0.446296C0.446296 7.45449 0.998598 8.78786 1.9817 9.77097L2.68881 9.06386ZM9.58435 15.9594L2.68881 9.06386L1.9817 9.77097L8.87725 16.6665L9.58435 15.9594ZM8.87587 16.6651C8.88424 16.6736 8.89264 16.682 8.90106 16.6904L9.60817 15.9833C9.60068 15.9758 9.5932 15.9683 9.58573 15.9608L8.87587 16.6651ZM8.90106 16.6904C9.50786 17.2972 10.4917 17.2972 11.0985 16.6904L10.3914 15.9833C10.1751 16.1996 9.82445 16.1996 9.60817 15.9833L8.90106 16.6904ZM11.1296 16.6562L11.1297 16.6562L10.3603 16.0174L10.3602 16.0175L11.1296 16.6562ZM11.0985 16.6904L18.0179 9.77102L17.3108 9.06391L10.3914 15.9833L11.0985 16.6904ZM18.0179 9.77102C19.001 8.78792 19.5533 7.45454 19.5533 6.06422H18.5533C18.5533 7.18932 18.1064 8.26834 17.3108 9.06391L18.0179 9.77102ZM19.5533 6.06422C19.5533 4.6739 19.001 3.34053 18.0179 2.35742L17.3108 3.06453C18.1064 3.8601 18.5533 4.93912 18.5533 6.06422H19.5533ZM18.0179 2.35742C17.0348 1.37432 15.7014 0.822014 14.3111 0.822015V1.82201C15.4362 1.82201 16.5152 2.26896 17.3108 3.06453L18.0179 2.35742ZM14.3111 0.822015C12.9208 0.822015 11.5874 1.37432 10.6043 2.35742L11.3114 3.06453C12.107 2.26896 13.186 1.82201 14.3111 1.82201V0.822015ZM10.6043 2.35742L9.64627 3.31544L10.3534 4.02255L11.3114 3.06453L10.6043 2.35742ZM8.6882 3.06447L9.64627 4.02255L10.3534 3.31544L9.3953 2.35737L8.6882 3.06447ZM5.6885 1.82196C6.81361 1.82196 7.89263 2.26891 8.6882 3.06447L9.3953 2.35737C8.4122 1.37426 7.07882 0.821961 5.6885 0.82196V1.82196ZM2.68881 3.06447C3.48438 2.26891 4.5634 1.82196 5.6885 1.82196L5.6885 0.82196C4.29818 0.821958 2.96481 1.37426 1.9817 2.35737L2.68881 3.06447Z" fill="#797D80"/>
</svg>
